<svg width="24" height="24" viewBox="0 0 24 24" fill="none" xmlns="http://www.w3.org/2000/svg">
<path fill-rule="evenodd" clip-rule="evenodd" d="M16.0042 20.3429C14.4954 21.1112 12.7819 21.5452 10.9652 21.5452C4.90927 21.5452 0 16.7222 0 10.7726C0 4.82306 4.90927 0 10.9652 0C17.021 0 21.9303 4.82306 21.9303 10.7726C21.9303 12.8095 21.3549 14.7143 20.3551 16.3388C20.0187 16.8853 19.6344 17.4 19.2077 17.8773C19.1861 17.9015 19.1644 17.9256 19.1426 17.9496L24 22.6752L22.6515 24L17.7421 19.242C17.2015 19.6601 16.6199 20.0293 16.0042 20.3429ZM17.716 16.5446L16.4487 17.7141C14.9372 18.8603 13.038 19.5452 10.9652 19.5452C5.98029 19.5452 2 15.5843 2 10.7726C2 5.96089 5.98029 2 10.9652 2C15.95 2 19.9303 5.96089 19.9303 10.7726C19.9303 12.974 19.0972 14.9972 17.716 16.5446Z" fill="#333333"/>
</svg>
