<svg width="24" height="24" viewBox="0 0 24 24" fill="none" xmlns="http://www.w3.org/2000/svg">
<path fill-rule="evenodd" clip-rule="evenodd" d="M12 24C18.6274 24 24 18.6274 24 12C24 5.37258 18.6274 0 12 0C5.37258 0 0 5.37258 0 12C0 18.6274 5.37258 24 12 24ZM12 22C18.0751 22 22 18.0751 22 12C22 5.92487 18.0751 2 12 2C5.92487 2 2 5.92487 2 12C2 18.0751 5.92487 22 12 22Z" fill="#999999"/>
<path d="M9 7L17.2481 15.2481L15.5985 16.8977L7.35039 8.64961L9 7Z" fill="#999999"/>
<path d="M7 15L15.2481 6.75193L16.8977 8.40154L8.64961 16.6496L7 15Z" fill="#999999"/>
</svg>
